<svg width="24" height="24" viewBox="0 0 24 24" fill="none" xmlns="http://www.w3.org/2000/svg">
<mask id="mask0_9_127" style="mask-type:alpha" maskUnits="userSpaceOnUse" x="0" y="0" width="24" height="24">
<rect width="24" height="24" fill="#D9D9D9"/>
</mask>
<g mask="url(#mask0_9_127)">
<path d="M12.0287 20.5C9.66774 20.5 7.66083 19.6736 6.00799 18.0207C4.35533 16.3681 3.52899 14.3611 3.52899 12C3.52899 9.73714 4.29658 7.79647 5.83174 6.17797C7.36691 4.55931 9.24666 3.68264 11.471 3.54797C11.6147 3.54797 11.7557 3.55314 11.8942 3.56347C12.0326 3.57381 12.1684 3.58922 12.3017 3.60972C11.7916 4.08656 11.3852 4.66281 11.0827 5.33847C10.7801 6.01414 10.6287 6.73464 10.6287 7.49997C10.6287 9.13881 11.2024 10.5319 12.3497 11.6792C13.4969 12.8264 14.8899 13.4 16.5287 13.4C17.3044 13.4 18.0275 13.2487 18.698 12.9462C19.3685 12.6436 19.939 12.2371 20.4095 11.727C20.43 11.8603 20.4454 11.9962 20.4557 12.1347C20.4659 12.2731 20.471 12.4141 20.471 12.5577C20.3428 14.7821 19.4695 16.6618 17.851 18.197C16.2323 19.7323 14.2916 20.5 12.0287 20.5ZM12.0287 19C13.4954 19 14.8121 18.5958 15.9787 17.7875C17.1454 16.9791 17.9954 15.925 18.5287 14.625C18.1954 14.7083 17.8621 14.775 17.5287 14.825C17.1954 14.875 16.8621 14.9 16.5287 14.9C14.4787 14.9 12.7329 14.1791 11.2912 12.7375C9.84957 11.2958 9.12874 9.54997 9.12874 7.49997C9.12874 7.16664 9.15374 6.83331 9.20374 6.49997C9.25374 6.16664 9.32041 5.83331 9.40374 5.49997C8.10374 6.03331 7.04957 6.88331 6.24124 8.04997C5.43291 9.21664 5.02874 10.5333 5.02874 12C5.02874 13.9333 5.71207 15.5833 7.07874 16.95C8.44541 18.3166 10.0954 19 12.0287 19Z" fill="#1C1B1F"/>
</g>
</svg>
