<?xml version="1.0" encoding="UTF-8"?><svg id="Layer_6" xmlns="http://www.w3.org/2000/svg" xmlns:xlink="http://www.w3.org/1999/xlink" viewBox="0 0 893.340425533289 530.04255319149"><defs><style>.cls-1{fill:url(#linear-gradient);}.cls-1,.cls-2,.cls-3,.cls-4,.cls-5,.cls-6,.cls-7,.cls-8,.cls-9,.cls-10,.cls-11,.cls-12,.cls-13{stroke-width:0px;}.cls-2{fill:#848484;}.cls-3{fill:url(#linear-gradient-6);}.cls-4{fill:#f7f7f7;}.cls-5{fill:#cfcfce;}.cls-6{fill:url(#linear-gradient-5);}.cls-14{opacity:.45;}.cls-7{fill:url(#linear-gradient-2);}.cls-8{fill:#b0b0b0;}.cls-9{fill:url(#linear-gradient-7);}.cls-10{fill:url(#linear-gradient-3);}.cls-11{fill:#565656;}.cls-12{fill:url(#linear-gradient-8);}.cls-13{fill:url(#linear-gradient-4);}</style><linearGradient id="linear-gradient" x1="42.36021520805" y1="204.048381388749" x2="851.810227415081" y2="204.048381388749" gradientUnits="userSpaceOnUse"><stop offset="0" stop-color="#a9d9bc"/><stop offset="1" stop-color="#344da1"/></linearGradient><linearGradient id="linear-gradient-2" x1="52.678541195154" y1="263.787942624301" x2="841.690705144611" y2="263.787942624301" xlink:href="#linear-gradient"/><linearGradient id="linear-gradient-3" x1="42.390244504925" y1="322.868418039772" x2="851.8401956768" y2="322.868418039772" xlink:href="#linear-gradient"/><linearGradient id="linear-gradient-4" x1="33.240220090863" y1="264.099032787566" x2="860.100205442425" y2="264.099032787566" xlink:href="#linear-gradient"/><linearGradient id="linear-gradient-5" x1="43.160264036175" y1="374.908181862005" x2="449.750229856488" y2="374.908181862005" xlink:href="#linear-gradient"/><linearGradient id="linear-gradient-6" x1="34.440232297894" y1="264.222157201366" x2="861.300217649456" y2="264.222157201366" xlink:href="#linear-gradient"/><linearGradient id="linear-gradient-7" x1="655.850205442425" y1="322.86714621425" x2="861.300217649456" y2="322.86714621425" xlink:href="#linear-gradient"/><linearGradient id="linear-gradient-8" x1="34.440232297894" y1="206.432148655656" x2="237.1302347393" y2="206.432148655656" xlink:href="#linear-gradient"/></defs><path class="cls-2" d="M851.210221311566,152.701546239738l-404.725006103516,114.095001220703L41.760209104535,380.891548681144l200.084991455078-119.095001220703,200.084991455078-119.095001220703v-.010009765625l172.350036621094-102.579956054688c20.140014648438-11.989990234375,45.22998046875-12.010009765625,65.380004882812-.059997558594.079956054688.039978027344.149963378906.079956054688.22998046875.130004882812.02001953125.019958496094.039978027344.029968261719.059997558594.039978027344l148.47998046875,89.090026855469c.110046386719.069946289062.220031738281.129943847656.330017089844.199951171875.049987792969.030029296875.100036621094.059997558594.150024414062.090026855469.039978027344.029968261719.089965820312.049987792969.130004882812.080017089844,9.369995117188,5.769958496094,16.929992675781,13.739990234375,22.169982910156,23.019958496094Z"/><path class="cls-2" d="M839.835190793988,141.031563329581c.055023193359.034973144531-.043362825474.154390303323.012078162696.188679479188.024797528053.015336790135-.006915900354.063022211871.01807799613.078036860308.019989013672.014984130859-.002126563948.052318707298.017892967302.067333355735,4.684997558594,2.884979248047-5.957382379125,15.235377610214-3.337387261938,19.875361741073l-178.747975269836,76.039374931771-210.365167673455,89.328713021573-181.818363048763,77.422942542873c-9.959991455078,5.779998779297-53.546566707949,14.579893260507-63.486569149355,8.769895701913l-148.75254766028-20.200330310216c-.005004882812-.005004882812-.01000149464-.005009805884-.015006377453-.010014688696-4.894989013672-2.864990234375,6.003549602415-15.761177485394,3.268564250852-20.521156733441l177.001071649515-76.587732923323,210.592843621616-90.711112744384.000000310379-.005004970306,177.859149196797-77.135294195166c10.070007324219-5.994995117188,54.005310259203-14.85378534033,64.080322466234-8.878779236815.039978027344.019989013672.174495284497.011925622832.214503829418.036950036894.010009765625.009979248047.029686962125.012250325766.03969672775.017255208579l153.41881526239,22.224882922439Z"/><path class="cls-2" d="M851.240189573285,152.751534032706l-201.429992675781,116.835021972656-201.429992675781,116.835021972656-175.539978027344,101.820007324219c-19.919982910156,11.559997558594-44.52001953125,11.519958496094-64.400024414062-.100036621094l-143.449951171875-83.829956054688c-.010009765625-.010009765625-.02001953125-.010009765625-.030029296875-.02001953125-9.789978027344-5.72998046875-17.700012207031-13.840026855469-23.169982910156-23.359985351562l404.724975585938-114.090026855469,404.724975585938-114.090026855469Z"/><path class="cls-5" d="M851.240189573285,152.751534032706c5.330017089844,9.440002441406,8.260009765625,20.240051269531,8.260009765625,31.440002441406v165.02001953125c0,22.619995117188-11.940002441406,43.559997558594-31.399963378906,55.080017089844-.090026855469.049987792969-.179992675781.109985351562-.27001953125.159973144531l-142.679992675781,83.5c-.02001953125.010009765625-.039978027344.02001953125-.059997558594.030029296875-20.030029296875,11.690002441406-44.809997558594,11.640014648438-64.780029296875-.150024414062l-171.929992675781-101.409973144531-175.284437081476-103.38889115693c-20.046074768099-11.823875963155-44.930743671792-11.833676691498-64.986125793055-.025594528403l-166.319402945781,97.924495450958-.030029296875-.0400390625h0c-5.429992675781-9.469970703125-8.429992675781-20.320007324219-8.47998046875-31.599975585938l-.640014648438-166.660034179688v-.279968261719c.02001953125-22.77001953125,12.110046386719-43.799987792969,31.780029296875-55.260009765625.080017089844-.049987792969.149963378906-.099975585938.22998046875-.140014648438L208.470231077191,43.951546239738c19.880004882812-11.469970703125,44.380004882812-11.419982910156,64.2099609375.140014648438l169.25,98.599975585938v.010009765625h.010009765625l179.369317886873,104.504056963353c19.742393090244,11.502302603374,44.119456410977,11.607084514868,63.960000726949.274924466785l165.940700917428-94.778981430138"/><path class="cls-11" d="M255.451382340206,254.776707738642l193.698841412766,133.699224177908-175.539978027344,101.820007324219c-19.919982910156,11.559997558594-44.52001953125,11.519958496094-64.400024414062-.100036621094l-143.449951171875-83.829956054688c-.010009765625-.010009765625-.02001953125-.010009765625-.030029296875-.02001953125-9.789978027344-5.72998046875-17.700012207031-13.840026855469-23.169982910156-23.359985351562l212.891124407546-128.209233943533Z"/><path class="cls-5" d="M852.440201780316,152.874658446504c5.330017089844,9.440002441406,8.260009765625,20.240051269531,8.260009765625,31.440002441406v165.02001953125c0,22.619995117188-11.940002441406,43.559997558594-31.399963378906,55.080017089844-.090026855469.049987792969-.179992675781.109985351562-.27001953125.159973144531l-142.679992675781,83.5c-.02001953125.010009765625-.039978027344.02001953125-.059997558594.030029296875-20.030029296875,11.690002441406-44.809997558594,11.640014648438-64.780029296875-.150024414062l-171.929992675781-101.409973144531-175.284437081476-103.38889115693c-20.046074768099-11.823875963155-44.930743671792-11.833676691498-64.986125793055-.025594528403l-166.319402945781,97.924495450958-.030029296875-.0400390625h0c-5.429992675781-9.469970703125-8.429992675781-20.320007324219-8.47998046875-31.599975585938l-.640014648438-166.660034179688v-.279968261719c.02001953125-22.77001953125,12.110046386719-43.799987792969,31.780029296875-55.260009765625.080017089844-.049987792969.149963378906-.099975585938.22998046875-.140014648438L209.670243284222,44.074670653536c19.880004882812-11.469970703125,44.380004882812-11.419982910156,64.2099609375.140014648438l169.25,98.599975585938v.010009765625h.010009765625l179.369317886873,104.504056963353c19.742393090244,11.502302603374,44.119456410977,11.607084514868,63.960000726949.274924466785l165.940700917428-94.778981430138"/><path class="cls-4" d="M860.700211545941,184.311592626456v165.019958496094c0,22.619995117188-11.940002441406,43.559997558594-31.399963378906,55.080017089844-.090026855469.049987792969-.180053710938.109985351562-.27001953125.159973144531l-142.679992675781,83.5c-.02001953125.010009765625-.0400390625.02001953125-.059997558594.030029296875-9.600036621094,5.609985351562-20.300048828125,8.510009765625-31.0400390625,8.710021972656v-240.7900390625c10.77001953125-.080017089844,21.5400390625-2.890014648438,31.220031738281-8.419982910156l165.940002441406-94.780029296875.029968261719.050048828125c5.330017089844,9.440002441406,8.260009765625,20.239990234375,8.260009765625,31.440002441406Z"/><path class="cls-8" d="M209.670243284222,44.071541356925c8.369995117188-4.829956054688,17.549987792969-7.619995117188,26.859985351562-8.359985351562v238.789978027344c-9.450012207031.77001953125-18.760009765625,3.650024414062-27.220031738281,8.630004882812l-166.319946289062,97.920043945312-.030029296875-.0400390625c-2.7099609375-4.739990234375-4.820007324219-9.820007324219-6.260009765625-15.119995117188-1.429992675781-5.309997558594-2.190002441406-10.839965820312-2.219970703125-16.47998046875l-.640014648438-166.660034179688v-.279968261719c.02001953125-22.77001953125,12.109985351562-43.799987792969,31.780029296875-55.260009765625.079956054688-.049987792969.149963378906-.099975585938.22998046875-.140014648438L209.670243284222,44.071541356925Z"/><g class="cls-14"><path class="cls-1" d="M851.810227415081,150.752125462297l-404.725006103516,114.095001220703L42.36021520805,378.942127903703l200.084991455078-119.095001220703,200.084991455078-119.095001220703v-.010009765625l172.350036621094-102.579956054688c20.140014648438-11.989990234375,45.22998046875-12.010009765625,65.380004882812-.059997558594.079956054688.039978027344.149963378906.079956054688.22998046875.130004882812.02001953125.019958496094.039978027344.029968261719.059997558594.039978027344l148.47998046875,89.090026855469c.110046386719.069946289062.220031738281.129943847656.330017089844.199951171875.049987792969.030029296875.100036621094.059997558594.150024414062.090026855469.039978027344.029968261719.089965820312.049987792969.130004882812.080017089844,9.369995117188,5.769958496094,16.929992675781,13.739990234375,22.169982910156,23.019958496094Z"/><path class="cls-7" d="M840.435196897503,139.082142552141c.055023193359.034973144531-.043362825474.154390303323.012078162696.188679479187.024797528053.015336790135-.006915900354.063022211872.01807799613.078036860309.019989013672.014984130859-.002126563948.052318707298.017892967302.067333355735,4.684997558594,2.884979248047-5.957382379122,15.235377610213-3.337387261934,19.875361741072l-178.747975269842,76.039374931773-210.365167673453,89.328713021572-181.818363048763,77.422942542873c-9.959991455078,5.779998779297-53.54656670795,14.579893260507-63.486569149356,8.769895701913l-148.75254766028-20.200330310216c-.005004882812-.005004882812-.01000149464-.005009805884-.015006377453-.010014688696-4.894989013672-2.864990234375,6.003549602415-15.761177485392,3.268564250852-20.521156733439l177.001071649515-76.587732923324,210.592843621616-90.711112744384.000000310378-.005004970306,177.859149196798-77.135294195166c10.070007324219-5.994995117188,54.005310259203-14.85378534033,64.080322466234-8.878779236815.039978027344.019989013672.174495284497.011925622832.214503829418.036950036894.010009765625.009979248047.029686962125.012250325766.03969672775.017255208579l153.41881526239,22.224882922439Z"/><path class="cls-10" d="M851.8401956768,150.802113255266l-201.429992675781,116.835021972656-201.429992675781,116.835021972656-175.539978027344,101.820007324219c-19.919982910156,11.559997558594-44.52001953125,11.519958496094-64.400024414062-.100036621094l-143.449951171875-83.829956054688c-.010009765625-.010009765625-.02001953125-.010009765625-.030029296875-.02001953125-9.789978027344-5.72998046875-17.700012207031-13.840026855469-23.169982910156-23.359985351562l404.724975585938-114.090026855469,404.724975585938-114.090026855469Z"/><path class="cls-13" d="M851.8401956768,150.802113255266c5.330017089844,9.440002441406,8.260009765625,20.240051269531,8.260009765625,31.440002441406v165.02001953125c0,22.619995117188-11.940002441406,43.559997558594-31.399963378906,55.080017089844-.090026855469.049987792969-.179992675781.109985351562-.27001953125.159973144531l-142.679992675781,83.5c-.02001953125.010009765625-.039978027344.02001953125-.059997558594.030029296875-20.030029296875,11.690002441406-44.809997558594,11.640014648438-64.780029296875-.150024414062l-171.929992675781-101.409973144531-175.284437081476-103.38889115693c-20.046074768099-11.823875963155-44.930743671792-11.833676691498-64.986125793055-.025594528403l-166.319402945781,97.924495450958-.030029296875-.0400390625h0c-5.429992675781-9.469970703125-8.429992675781-20.320007324219-8.47998046875-31.599975585938l-.640014648438-166.660034179688v-.279968261719c.02001953125-22.77001953125,12.110046386719-43.799987792969,31.780029296875-55.260009765625.080017089844-.049987792969.149963378906-.099975585938.22998046875-.140014648438L209.070237180706,42.002125462297c19.880004882812-11.469970703125,44.380004882812-11.419982910156,64.2099609375.140014648438l169.25,98.599975585938v.010009765625h.010009765625l179.369317886873,104.504056963353c19.742393090244,11.502302603374,44.119456410977,11.607084514868,63.960000726949.274924466785l165.940700917428-94.778981430138"/><path class="cls-6" d="M256.051388443721,252.827286961201l193.698841412766,133.699224177908-175.539978027344,101.820007324219c-19.919982910156,11.559997558594-44.52001953125,11.519958496094-64.400024414062-.100036621094l-143.449951171875-83.829956054688c-.010009765625-.010009765625-.02001953125-.010009765625-.030029296875-.02001953125-9.789978027344-5.72998046875-17.700012207031-13.840026855469-23.169982910156-23.359985351562l212.891124407546-128.209233943533Z"/><path class="cls-3" d="M853.040207883831,150.925237669064c5.330017089844,9.440002441406,8.260009765625,20.240051269531,8.260009765625,31.440002441406v165.02001953125c0,22.619995117188-11.940002441406,43.559997558594-31.399963378906,55.080017089844-.090026855469.049987792969-.179992675781.109985351562-.27001953125.159973144531l-142.679992675781,83.5c-.02001953125.010009765625-.039978027344.02001953125-.059997558594.030029296875-20.030029296875,11.690002441406-44.809997558594,11.640014648438-64.780029296875-.150024414062l-171.929992675781-101.409973144531-175.284437081476-103.38889115693c-20.046074768099-11.823875963155-44.930743671792-11.833676691498-64.986125793055-.025594528403l-166.319402945781,97.924495450958-.030029296875-.0400390625h0c-5.429992675781-9.469970703125-8.429992675781-20.320007324219-8.47998046875-31.599975585938l-.640014648438-166.660034179688v-.279968261719c.02001953125-22.77001953125,12.110046386719-43.799987792969,31.780029296875-55.260009765625.080017089844-.049987792969.149963378906-.099975585938.22998046875-.140014648438L210.270249387738,42.125249876095c19.880004882812-11.469970703125,44.380004882812-11.419982910156,64.2099609375.140014648438l169.25,98.599975585938v.010009765625h.010009765625l179.369317886873,104.504056963353c19.742393090244,11.502302603374,44.119456410977,11.607084514868,63.960000726949.274924466785l165.940700917428-94.778981430138"/><path class="cls-9" d="M861.300217649456,182.362171849016v165.019958496094c0,22.619995117188-11.940002441406,43.559997558594-31.399963378906,55.080017089844-.090026855469.049987792969-.180053710938.109985351562-.27001953125.159973144531l-142.679992675781,83.5c-.02001953125.010009765625-.0400390625.02001953125-.059997558594.030029296875-9.600036621094,5.609985351562-20.300048828125,8.510009765625-31.0400390625,8.710021972656v-240.7900390625c10.77001953125-.080017089844,21.5400390625-2.890014648438,31.220031738281-8.419982910156l165.940002441406-94.780029296875.029968261719.050048828125c5.330017089844,9.440002441406,8.260009765625,20.239990234375,8.260009765625,31.440002441406Z"/><path class="cls-12" d="M210.270249387738,42.122120579485c8.369995117188-4.829956054688,17.549987792969-7.619995117188,26.859985351562-8.359985351562v238.789978027344c-9.450012207031.77001953125-18.760009765625,3.650024414062-27.220031738281,8.630004882812l-166.319946289062,97.920043945312-.030029296875-.0400390625c-2.7099609375-4.739990234375-4.820007324219-9.820007324219-6.260009765625-15.119995117188-1.429992675781-5.309997558594-2.190002441406-10.839965820312-2.219970703125-16.47998046875l-.640014648438-166.660034179688v-.279968261719c.02001953125-22.77001953125,12.109985351562-43.799987792969,31.780029296875-55.260009765625.079956054688-.049987792969.149963378906-.099975585938.22998046875-.140014648438L210.270249387738,42.122120579485Z"/></g></svg>