<?xml version="1.0" encoding="utf-8"?>
<!-- Generator: Adobe Illustrator 28.1.0, SVG Export Plug-In . SVG Version: 6.00 Build 0)  -->
<svg version="1.1" id="Layer_6" xmlns="http://www.w3.org/2000/svg" xmlns:xlink="http://www.w3.org/1999/xlink" x="0px" y="0px"
	 viewBox="0 0 893.3 530" style="enable-background:new 0 0 893.3 530;" xml:space="preserve">
<style type="text/css">
	.st0{fill:#ABABAA;}
	.st1{fill:#CFCFCE;}
	.st2{fill:#535453;}
	.st3{fill:#C6CAD7;}
	.st4{fill:#F9F9FA;}
	.st5{fill:#969696;}
	.st6{opacity:0.33;}
	.st7{fill:url(#SVGID_1_);}
	.st8{fill:url(#SVGID_00000012434213681519728000000003696774845252552621_);}
	.st9{fill:url(#SVGID_00000011714190590156461000000017480789966752697003_);}
	.st10{fill:url(#SVGID_00000132772005173800767550000011263065125206478491_);}
	.st11{fill:url(#SVGID_00000144333112379310050120000002628920790792496536_);}
	.st12{fill:url(#SVGID_00000139997631306365586590000015474166975532964749_);}
	.st13{fill:url(#SVGID_00000023268658206361874180000010035024469601939117_);}
	.st14{fill:url(#SVGID_00000055678191182827195500000000318922512778610583_);}
	.st15{opacity:0.49;fill:#29475B;}
</style>
<path class="st0" d="M851.2,152.7L446.5,266.8L41.8,380.9l200.1-119.1l200.1-119.1v0L614.3,40.1c20.1-12,45.2-12,65.4-0.1
	c0.1,0,0.1,0.1,0.2,0.1c0,0,0,0,0.1,0l148.5,89.1c0.1,0.1,0.2,0.1,0.3,0.2c0,0,0.1,0.1,0.2,0.1c0,0,0.1,0,0.1,0.1
	C838.4,135.5,846,143.4,851.2,152.7L851.2,152.7z"/>
<path class="st0" d="M839.8,141c0.1,0,0,0.2,0,0.2c0,0,0,0.1,0,0.1c0,0,0,0.1,0,0.1c4.7,2.9-6,15.2-3.3,19.9l-178.7,76l-210.4,89.3
	L265.6,404c-10,5.8-53.5,14.6-63.5,8.8L53.4,392.6c0,0,0,0,0,0c-4.9-2.9,6-15.8,3.3-20.5l177-76.6l210.6-90.7v0l177.9-77.1
	c10.1-6,54-14.9,64.1-8.9c0,0,0.2,0,0.2,0c0,0,0,0,0,0L839.8,141L839.8,141z"/>
<path class="st0" d="M851.2,152.8L649.8,269.6L448.4,386.4L272.8,488.2c-19.9,11.6-44.5,11.5-64.4-0.1L65,404.3c0,0,0,0,0,0
	c-9.8-5.7-17.7-13.8-23.2-23.4l404.7-114.1L851.2,152.8L851.2,152.8z"/>
<path class="st1" d="M851.2,152.8c5.3,9.4,8.3,20.2,8.3,31.4v165c0,22.6-11.9,43.6-31.4,55.1c-0.1,0-0.2,0.1-0.3,0.2L685.2,488
	c0,0,0,0-0.1,0c-20,11.7-44.8,11.6-64.8-0.2L448.4,386.4L273.1,283c-20-11.8-44.9-11.8-65,0L41.8,380.9l0,0l0,0
	c-5.4-9.5-8.4-20.3-8.5-31.6l-0.6-166.7v-0.3c0-22.8,12.1-43.8,31.8-55.3c0.1,0,0.1-0.1,0.2-0.1l143.8-83
	c19.9-11.5,44.4-11.4,64.2,0.1l169.2,98.6v0h0l179.4,104.5c19.7,11.5,44.1,11.6,64,0.3L851.2,152.8"/>
<path class="st2" d="M255.5,254.8l193.7,133.7L273.6,490.3c-19.9,11.6-44.5,11.5-64.4-0.1L65.8,406.4c0,0,0,0,0,0
	c-9.8-5.7-17.7-13.8-23.2-23.4L255.5,254.8L255.5,254.8z"/>
<path class="st3" d="M852.4,152.9c5.3,9.4,8.3,20.2,8.3,31.4v165c0,22.6-11.9,43.6-31.4,55.1c-0.1,0-0.2,0.1-0.3,0.2l-142.7,83.5
	c0,0,0,0-0.1,0c-20,11.7-44.8,11.6-64.8-0.2L449.6,386.5L274.3,283.2c-20-11.8-44.9-11.8-65,0L43,381.1l0,0l0,0
	c-5.4-9.5-8.4-20.3-8.5-31.6l-0.6-166.7v-0.3c0-22.8,12.1-43.8,31.8-55.3c0.1,0,0.1-0.1,0.2-0.1l143.8-83
	c19.9-11.5,44.4-11.4,64.2,0.1l169.2,98.6v0h0l179.4,104.5c19.7,11.5,44.1,11.6,64,0.3L852.4,152.9"/>
<path class="st4" d="M860.7,184.3v165c0,22.6-11.9,43.6-31.4,55.1c-0.1,0-0.2,0.1-0.3,0.2l-142.7,83.5c0,0,0,0-0.1,0
	c-9.6,5.6-20.3,8.5-31,8.7V256c10.8-0.1,21.5-2.9,31.2-8.4l165.9-94.8l0,0.1C857.8,162.3,860.7,173.1,860.7,184.3L860.7,184.3z"/>
<path class="st5" d="M209.7,44.1c8.4-4.8,17.5-7.6,26.9-8.4v238.8c-9.5,0.8-18.8,3.7-27.2,8.6L43,381.1l0,0
	c-2.7-4.7-4.8-9.8-6.3-15.1c-1.4-5.3-2.2-10.8-2.2-16.5l-0.6-166.7v-0.3c0-22.8,12.1-43.8,31.8-55.3c0.1,0,0.1-0.1,0.2-0.1
	L209.7,44.1z"/>
<g class="st6">
	
		<linearGradient id="SVGID_1_" gradientUnits="userSpaceOnUse" x1="42.3602" y1="327.9516" x2="851.8102" y2="327.9516" gradientTransform="matrix(1 0 0 -1 0 532)">
		<stop  offset="1.491780e-07" style="stop-color:#ADDABA"/>
		<stop  offset="1" style="stop-color:#38459C"/>
	</linearGradient>
	<path class="st7" d="M851.8,150.8L447.1,264.8L42.4,378.9l200.1-119.1l200.1-119.1v0L614.9,38.2c20.1-12,45.2-12,65.4-0.1
		c0.1,0,0.1,0.1,0.2,0.1c0,0,0,0,0.1,0L829,127.4c0.1,0.1,0.2,0.1,0.3,0.2c0,0,0.1,0.1,0.2,0.1c0,0,0.1,0,0.1,0.1
		C839,133.5,846.6,141.5,851.8,150.8L851.8,150.8z"/>
	
		<linearGradient id="SVGID_00000100372269207616816990000009052334205239080581_" gradientUnits="userSpaceOnUse" x1="52.6785" y1="268.212" x2="841.6907" y2="268.212" gradientTransform="matrix(1 0 0 -1 0 532)">
		<stop  offset="1.491780e-07" style="stop-color:#ADDABA"/>
		<stop  offset="1" style="stop-color:#38459C"/>
	</linearGradient>
	<path style="fill:url(#SVGID_00000100372269207616816990000009052334205239080581_);" d="M840.4,139.1c0.1,0,0,0.2,0,0.2
		c0,0,0,0.1,0,0.1c0,0,0,0.1,0,0.1c4.7,2.9-6,15.2-3.3,19.9l-178.7,76L448,324.7l-181.8,77.4c-10,5.8-53.5,14.6-63.5,8.8L54,390.7
		c0,0,0,0,0,0c-4.9-2.9,6-15.8,3.3-20.5l177-76.6l210.6-90.7v0l177.9-77.1c10.1-6,54-14.9,64.1-8.9c0,0,0.2,0,0.2,0c0,0,0,0,0,0
		L840.4,139.1L840.4,139.1z"/>
	
		<linearGradient id="SVGID_00000020369752902021265020000009463119471900599952_" gradientUnits="userSpaceOnUse" x1="42.3903" y1="209.1316" x2="851.8402" y2="209.1316" gradientTransform="matrix(1 0 0 -1 0 532)">
		<stop  offset="1.491780e-07" style="stop-color:#ADDABA"/>
		<stop  offset="1" style="stop-color:#38459C"/>
	</linearGradient>
	<path style="fill:url(#SVGID_00000020369752902021265020000009463119471900599952_);" d="M851.8,150.8L650.4,267.6L449,384.5
		L273.4,486.3c-19.9,11.6-44.5,11.5-64.4-0.1L65.6,402.4c0,0,0,0,0,0c-9.8-5.7-17.7-13.8-23.2-23.4l404.7-114.1L851.8,150.8
		L851.8,150.8z"/>
	
		<linearGradient id="SVGID_00000183966936462048498290000012986328156597605510_" gradientUnits="userSpaceOnUse" x1="33.2403" y1="267.901" x2="860.1002" y2="267.901" gradientTransform="matrix(1 0 0 -1 0 532)">
		<stop  offset="1.491780e-07" style="stop-color:#ADDABA"/>
		<stop  offset="1" style="stop-color:#38459C"/>
	</linearGradient>
	<path style="fill:url(#SVGID_00000183966936462048498290000012986328156597605510_);" d="M851.8,150.8c5.3,9.4,8.3,20.2,8.3,31.4
		v165c0,22.6-11.9,43.6-31.4,55.1c-0.1,0-0.2,0.1-0.3,0.2L685.8,486c0,0,0,0-0.1,0c-20,11.7-44.8,11.6-64.8-0.2L449,384.5
		L273.7,281.1c-20-11.8-44.9-11.8-65,0L42.4,379l0,0l0,0c-5.4-9.5-8.4-20.3-8.5-31.6l-0.6-166.7v-0.3c0-22.8,12.1-43.8,31.8-55.3
		c0.1,0,0.1-0.1,0.2-0.1l143.8-83c19.9-11.5,44.4-11.4,64.2,0.1l169.2,98.6v0h0l179.4,104.5c19.7,11.5,44.1,11.6,64,0.3L851.8,150.8
		"/>
	
		<linearGradient id="SVGID_00000139280862359144541930000002046111586610066859_" gradientUnits="userSpaceOnUse" x1="43.1603" y1="157.0918" x2="449.7502" y2="157.0918" gradientTransform="matrix(1 0 0 -1 0 532)">
		<stop  offset="1.491780e-07" style="stop-color:#ADDABA"/>
		<stop  offset="1" style="stop-color:#38459C"/>
	</linearGradient>
	<path style="fill:url(#SVGID_00000139280862359144541930000002046111586610066859_);" d="M256.1,252.8l193.7,133.7L274.2,488.3
		c-19.9,11.6-44.5,11.5-64.4-0.1L66.4,404.4c0,0,0,0,0,0c-9.8-5.7-17.7-13.8-23.2-23.4L256.1,252.8L256.1,252.8z"/>
	
		<linearGradient id="SVGID_00000065056422953995130360000011885374213523869364_" gradientUnits="userSpaceOnUse" x1="34.4403" y1="267.7778" x2="861.3002" y2="267.7778" gradientTransform="matrix(1 0 0 -1 0 532)">
		<stop  offset="1.491780e-07" style="stop-color:#ADDABA"/>
		<stop  offset="1" style="stop-color:#38459C"/>
	</linearGradient>
	<path style="fill:url(#SVGID_00000065056422953995130360000011885374213523869364_);" d="M853,150.9c5.3,9.4,8.3,20.2,8.3,31.4v165
		c0,22.6-11.9,43.6-31.4,55.1c-0.1,0-0.2,0.1-0.3,0.2L687,486.1c0,0,0,0-0.1,0c-20,11.7-44.8,11.6-64.8-0.2L450.2,384.6L274.9,281.2
		c-20-11.8-44.9-11.8-65,0L43.6,379.1l0,0l0,0c-5.4-9.5-8.4-20.3-8.5-31.6l-0.6-166.7v-0.3c0-22.8,12.1-43.8,31.8-55.3
		c0.1,0,0.1-0.1,0.2-0.1l143.8-83c19.9-11.5,44.4-11.4,64.2,0.1l169.2,98.6v0h0l179.4,104.5c19.7,11.5,44.1,11.6,64,0.3L853,150.9"
		/>
	
		<linearGradient id="SVGID_00000021823527456926922510000009615850105677287824_" gradientUnits="userSpaceOnUse" x1="655.8502" y1="209.1328" x2="861.3002" y2="209.1328" gradientTransform="matrix(1 0 0 -1 0 532)">
		<stop  offset="1.491780e-07" style="stop-color:#ADDABA"/>
		<stop  offset="1" style="stop-color:#38459C"/>
	</linearGradient>
	<path style="fill:url(#SVGID_00000021823527456926922510000009615850105677287824_);" d="M861.3,182.4v165
		c0,22.6-11.9,43.6-31.4,55.1c-0.1,0-0.2,0.1-0.3,0.2L687,486.1c0,0,0,0-0.1,0c-9.6,5.6-20.3,8.5-31,8.7V254.1
		c10.8-0.1,21.5-2.9,31.2-8.4L853,150.9l0,0.1C858.4,160.4,861.3,171.2,861.3,182.4L861.3,182.4z"/>
	
		<linearGradient id="SVGID_00000088131644626553850510000013178315211309816482_" gradientUnits="userSpaceOnUse" x1="34.4402" y1="325.5678" x2="237.1302" y2="325.5678" gradientTransform="matrix(1 0 0 -1 0 532)">
		<stop  offset="1.491780e-07" style="stop-color:#ADDABA"/>
		<stop  offset="1" style="stop-color:#38459C"/>
	</linearGradient>
	<path style="fill:url(#SVGID_00000088131644626553850510000013178315211309816482_);" d="M210.3,42.1c8.4-4.8,17.5-7.6,26.9-8.4
		v238.8c-9.5,0.8-18.8,3.7-27.2,8.6L43.6,379.1l0,0c-2.7-4.7-4.8-9.8-6.3-15.1c-1.4-5.3-2.2-10.8-2.2-16.5l-0.6-166.7v-0.3
		c0-22.8,12.1-43.8,31.8-55.3c0.1,0,0.1-0.1,0.2-0.1L210.3,42.1z"/>
</g>
<path class="st15" d="M852.3,154L852.3,154l-0.9,0.4c-0.1-0.2-0.2-0.4-0.3-0.6l0-0.1l0,0c-5.2-9.3-12.8-17.2-22.2-23
	c0,0-0.1-0.1-0.1-0.1c0,0-0.1-0.1-0.2-0.1c-0.1-0.1-0.2-0.1-0.3-0.2L679.8,41.4c0,0,0,0-0.1,0c-0.1-0.1-0.2-0.1-0.2-0.1
	c-20.2-12-45.2-11.9-65.4,0.1L442.2,143.6L273.7,45.4c-8.2-4.8-17.2-7.6-26.4-8.4c-13.3-1.5-27,1.2-39.1,8.2l-143.8,83
	c-0.1,0-0.1,0.1-0.2,0.1c-19.7,11.5-31.8,32.5-31.8,55.3v0.3l0.6,166.7c0,11.3,3,22.1,8.5,31.6l0,0l0.2-0.1l0.8-0.2c0,0,0,0,0,0
	l-1,0.3c0.4,0.6,0.7,1.2,1.1,1.9l-0.3,0.2c5.5,9.5,13.4,17.6,23.2,23.4c0,0,0,0,0,0L209,491.3c19.9,11.6,44.5,11.7,64.4,0.1
	L449,389.6l-2-1.4l1.2-0.7L620.1,489c8.3,4.9,17.4,7.7,26.6,8.6c4.8,0.5,9.5,0.5,14.3,0c0,0,0.1,0,0.1,0c0.6-0.1,1.2-0.1,1.8-0.2
	c0.1,0,0.2,0,0.3,0c0.6-0.1,1.1-0.2,1.7-0.3c0.1,0,0.3,0,0.4-0.1c0.5-0.1,1-0.2,1.5-0.3c0.2,0,0.4-0.1,0.5-0.1
	c0.5-0.1,1-0.2,1.4-0.3c0.2-0.1,0.4-0.1,0.6-0.2c0.4-0.1,0.9-0.2,1.3-0.3c0.2-0.1,0.5-0.1,0.7-0.2c0.4-0.1,0.8-0.2,1.2-0.4
	c0.3-0.1,0.6-0.2,0.8-0.3c0.4-0.1,0.7-0.2,1.1-0.4c0.3-0.1,0.6-0.2,0.9-0.3c0.3-0.1,0.7-0.2,1-0.4c0.3-0.1,0.6-0.3,1-0.4
	c0.3-0.1,0.7-0.3,1-0.4c0.3-0.1,0.6-0.3,1-0.4c0.3-0.1,0.7-0.3,1-0.4c0.3-0.1,0.6-0.3,0.9-0.4c0.3-0.2,0.7-0.3,1-0.5
	c0.2-0.1,0.4-0.2,0.7-0.3c1-0.5,2-1.1,3-1.7c0,0,0,0,0.1,0l142.7-83.5c0.1,0,0.2-0.1,0.3-0.2c19.5-11.5,31.4-32.5,31.4-55.1v0v-165
	v0C860.5,174.3,857.6,163.5,852.3,154z M851,153.9l-0.2,0.1l-14.5,4.1c0,0,0,0,0-0.1L851,153.9z M44.3,381.3l0.2-0.1l5.2-1.5
	l-0.2,0.1L44.3,381.3z"/>
</svg>
